<?xml version="1.0" encoding="UTF-8"?>
<!DOCTYPE svg PUBLIC "-//W3C//DTD SVG 1.1//EN" "http://www.w3.org/Graphics/SVG/1.1/DTD/svg11.dtd">
<!-- Creator: CorelDRAW -->
<svg xmlns="http://www.w3.org/2000/svg" xml:space="preserve" width="120.115mm" height="102.225mm" version="1.1" style="shape-rendering:geometricPrecision; text-rendering:geometricPrecision; image-rendering:optimizeQuality; fill-rule:evenodd; clip-rule:evenodd"
viewBox="0 0 1779.25 1514.25"
 xmlns:xlink="http://www.w3.org/1999/xlink"
 xmlns:xodm="http://www.corel.com/coreldraw/odm/2003">
 <defs>
  <style type="text/css">
   <![CDATA[
    .fil0 {fill:#ED3237}
   ]]>
  </style>
 </defs>
 <g id="Capa_x0020_1">
  <metadata id="CorelCorpID_0Corel-Layer"/>
  <path class="fil0" d="M1564.13 1001.55c19.02,7.53 32.47,26.09 32.47,47.8 0,28.38 -23,51.39 -51.37,51.39 -8.41,0 -16.35,-2.02 -23.35,-5.61 16.25,-29.95 30.4,-61.21 42.26,-93.58zm207.62 -428.76c-2.56,0 -4.95,1.35 -6.31,3.48 -42.49,66.94 -94.56,119.87 -109.73,121.3 -0.8,-11.63 49.75,-92.73 77.07,-164.9 6.23,-18.2 -4.87,-39.25 -33.62,-39.25 -29.31,0 -90.32,76.36 -125.78,128.26 25.4,-53.73 33.62,-63.06 44.48,-92.1 11.9,-31.89 -35.62,-38.38 -46.88,-35.37 1.97,6.03 -16,46.38 -35.53,88.19 -41.6,63.63 -90.7,112.99 -105.27,114.37 -0.8,-11.63 64.69,-101.68 64.69,-101.68 7.43,-15.98 -36.5,-42.89 -42.25,-34.34 -2.8,4.83 -8.39,13.85 -15.17,24.69 -19.33,20.42 -80.34,111.33 -120.2,111.33 -25.96,0 69.32,-150.58 128.66,-171.23 4.31,-1.5 12.62,-2.45 17.89,0.16 0.88,0.48 1.92,-0.32 1.52,-1.27 -3.43,-8.62 -16.53,-31.1 -59.18,-31.1 -29.14,0 -94.77,66.28 -123.67,121.89 -35.59,39.51 -87.28,81.78 -129.42,81.78 -59.02,0 24.28,-177.64 83.14,-181.28 2.71,-0.16 4.27,1.85 4.85,5.21 -7.36,2.72 -12.51,9 -12.51,16.31 0,9.8 9.26,17.75 20.67,17.75 10.18,0 20.68,-6.88 20.68,-17.86 2.84,-22.36 -12.91,-49.82 -58.93,-49.82 -61.14,0 -110.71,72.81 -126.14,127.77 -35.21,47.11 -70.37,80.54 -82.38,81.67 -0.8,-11.63 66.68,-117.66 84.49,-163.95 12.06,-31.26 -10.38,-38.38 -47.2,-40.27 1.64,9.05 -17.42,50.31 -37.24,90.53 -33.64,51.4 -72.08,93.36 -93.17,108.07 -5.11,3.56 -11.58,0.32 -13.02,-5.7 -5.19,-21.28 -11.34,-63.22 -16.77,-100.73l62.47 -55.73c2.49,0.94 5.03,2.46 6.98,5.25 25.57,36.6 32.37,-21.69 26.19,-35.35 -0,-0.68 -0.58,-1.47 -1.56,-2.23l-0.01 -0.01 -0 0c-3.71,-2.9 -13.05,-5.52 -17.88,-1.19l-78.9 70.98c-2.56,-17.65 -4.87,-33.07 -6.79,-43.28 -6.79,-36.71 -49.52,-38.93 -69.24,-23.5 -11.63,9.04 -34.05,42.96 -51.62,70.58 -0.43,0.51 -0.85,1.08 -1.25,1.74 -26.12,42.17 -103.74,124.78 -162.68,124.78 -24.92,0 -24.44,-32.36 -11.1,-69.79 54.15,2.21 100.31,-32.52 121.15,-75.33 16.77,-34.34 -12.62,-62.9 -52.15,-64.57 -69.33,-2.81 -123.9,93.53 -130.47,148.9 -7.8,14.34 -16.71,27.04 -28.55,36.3 -74.89,49.93 -8.32,-372.38 58.25,-382.78 8.32,-2.08 10.4,-10.4 2.08,-10.4 -124.18,-1.76 -141.46,205.95 -220.51,314.13 36.74,-144.19 -54.88,-152.13 -52.01,-316.21 -52.01,12.48 -95.69,208.03 -101.94,247.56 -60.33,312.05 -247.56,60.33 -85.29,54.09 10.4,-8.32 10.4,-4.16 6.24,-14.56 -89.45,-29.13 -131.06,110.26 -39.53,139.38 43.69,10.4 72.81,-16.64 101.94,-58.25 45.77,-81.13 64.49,-245.48 74.89,-253.8 0,91.53 70.73,160.18 56.17,295.4 38.95,-9.74 112.53,-209.05 142.25,-254.96 -2.73,4.55 -5.08,9.76 -7.43,15.64 1.22,0 2.08,-0.18 2.69,-0.27 -64.85,156.18 -41.68,372.69 90.76,210.62 4.61,37.44 32.21,56.38 68,56.38 88.52,0 165.8,-107.97 181.62,-136.86 17.9,-27.84 43.9,-64.34 49.75,-64.99 6.39,-0.71 7.83,0.63 12.3,19.78 4.87,20.89 8.46,46.53 11.58,71.13l-71.29 64.16c-7.96,-7.12 -15.86,-14.32 -24.67,-20.33 -2.81,-1.92 -4.4,-1.49 -6.61,0.15 -5.8,4.54 -5.1,37.48 4.24,46.94 1.66,4 15.36,3.21 17.82,1.1l82.66 -73.74c3.04,25.24 5.51,47.48 8.23,59.58 5.99,26.98 25.48,33.07 46.24,33.07 15.83,0 42.86,-21.72 71.63,-54.73 -1.52,3.14 -2.62,5.52 -3.18,6.94 -10.78,26.98 18.05,46.84 36.26,47.79 17.79,0.92 49.86,-26.93 82.58,-67.44l-0 0.5c0.32,44.63 29.63,67.1 68.68,67.1 46.1,0 87.81,-27.19 120.07,-58.33 -0.04,0.43 -0.09,0.86 -0.12,1.28 -3.2,47.4 28.83,56.26 49.99,56.26 17.81,0 46,-22.08 71.08,-49.22 -0.88,1.82 -1.6,3.32 -2.16,4.59 -10.7,26.9 19.41,44.31 37.61,45.26 16.75,0.86 46.13,-23.81 76.83,-60.51 -4.7,10.11 -8.38,18.24 -10.38,23.25 -8.54,21.36 10.78,37.19 44.72,37.19 41.61,-84.19 119.24,-175.58 150.94,-199.71 -20.36,48.66 -67.88,140.53 -72.84,152.79 -10.7,26.98 18.05,46.84 36.34,47.79 26.04,1.35 82.9,-59.27 127.54,-130.95 3.04,-4.91 -0.48,-11.31 -6.39,-11.31zm-1103.39 -57.21c22.52,0 -0.48,81.26 -85.77,90.6 20.76,-45.34 56.3,-90.6 85.77,-90.6zm233.11 -453.95c289.84,0 538.3,177.21 643.21,429.28l1.87 5.7c-1.77,6.3 -5.56,15.08 -8.41,21.62 -97.12,-257.39 -345.51,-440.45 -636.66,-440.45 -246.21,0 -461.86,130.91 -581.3,326.96 -2.6,-6.15 -5.09,-12.34 -7.4,-18.65 123.48,-195 340.97,-324.47 588.7,-324.47zm694.6 645.37c1.25,17.1 1.91,34.37 1.91,51.79 0,385.03 -311.84,697.16 -696.52,697.16 -384.67,0 -696.52,-312.13 -696.52,-697.16 0,-77.74 12.72,-152.51 36.19,-222.33 3.11,9.17 5.92,18.13 8.41,26.99 -18.49,61.88 -28.46,127.44 -28.46,195.34 0,376.11 304.61,681 680.37,681 375.76,0 680.38,-304.9 680.38,-681 0,-24.12 -1.27,-47.94 -3.72,-71.42 3.41,-5.7 6.92,-11.37 10.52,-17 -2.1,12.89 0.62,25.56 7.42,36.62zm-514.64 -309.98c13.97,0 25.29,11.33 25.29,25.3 0,13.97 -11.32,25.3 -25.29,25.3 -13.97,0 -25.29,-11.33 -25.29,-25.3 0,-13.97 11.32,-25.3 25.29,-25.3zm441.5 -30.18c28.37,0 51.37,23.01 51.37,51.39 0,20.99 -12.58,39.03 -30.6,47.01 -14.24,-31.24 -30.68,-61.26 -49.13,-89.87 8.13,-5.39 17.88,-8.54 28.36,-8.54zm-1157.59 -81.88c2.36,1.51 4.56,3.18 6.58,4.98 -22.62,25.57 -43.41,52.79 -62.18,81.46 -0.83,-0.54 -1.65,-1.1 -2.44,-1.68l-0.31 -1.04c-6.77,-23.17 -10.06,-46.64 -10.94,-70.5 15.82,-21.93 46.21,-27.95 69.28,-13.22zm45.48 -90.03c16.01,0 30.3,7.32 39.72,18.8 -26.32,21.84 -51.03,45.54 -73.93,70.92 -10.53,-9.41 -17.16,-23.1 -17.16,-38.33 0,-28.38 23,-51.39 51.37,-51.39zm110.8 -59.59c6.82,4.35 12.26,10.05 16.2,16.52 -29.41,17.68 -57.44,37.43 -83.86,59.08 -13.48,-16.71 -15.49,-40.81 -3.29,-59.92 15.27,-23.92 47.04,-30.94 70.95,-15.68zm66.76 -62.38c20.82,0 38.75,12.4 46.82,30.21 -31.91,12.98 -62.67,28.22 -92.06,45.54 -3.91,-7.25 -6.13,-15.55 -6.13,-24.36 0,-28.38 23,-51.39 51.37,-51.39zm126.86 -34.23c11.79,7.52 19.46,19.06 22.39,31.69 -33.55,7.95 -66.19,18.27 -97.71,30.83 -5.97,-14.87 -4.91,-32.3 4.37,-46.84 15.27,-23.92 47.04,-30.94 70.95,-15.68zm78.36 -31.42c26.66,0 48.57,20.31 51.12,46.31 -34.57,2.73 -68.45,7.93 -101.44,15.46 -0.69,-3.35 -1.05,-6.83 -1.05,-10.38 0,-28.38 23,-51.39 51.37,-51.39zm107.24 -7.3c28.37,0 51.37,23.01 51.37,51.39 0,0.63 -0.02,1.25 -0.04,1.87 -16.95,-1.22 -34.07,-1.87 -51.33,-1.87 -17.27,0 -34.38,0.65 -51.33,1.87 -0.02,-0.62 -0.04,-1.24 -0.04,-1.87 0,-28.38 23,-51.39 51.37,-51.39zm137.11 15.23c18.66,11.91 27.02,33.87 22.54,54.3 -32.96,-7.62 -66.81,-12.91 -101.36,-15.73 0.73,-7.9 3.3,-15.75 7.86,-22.9 15.27,-23.92 47.04,-30.94 70.95,-15.68zm104.3 25.8c20.62,13.16 28.66,38.59 20.7,60.68 -31.56,-12.64 -64.26,-23.05 -97.88,-31.07 1.33,-4.81 3.4,-9.51 6.22,-13.94 15.27,-23.92 47.04,-30.94 70.95,-15.68zm71.94 32.18c28.37,0 51.37,23.01 51.37,51.39 0,8.9 -2.26,17.26 -6.23,24.56 -29.37,-17.35 -60.1,-32.63 -91.99,-45.65 8.05,-17.86 26,-30.29 46.85,-30.29zm123.96 62.65c23.91,15.27 30.92,47.04 15.64,70.96 -1.27,2 -2.67,3.88 -4.16,5.63 -26.29,-21.68 -54.18,-41.5 -83.46,-59.25 0.33,-0.56 0.67,-1.12 1.02,-1.67 15.27,-23.92 47.04,-30.94 70.95,-15.68zm54.02 62.05c28.37,0 51.37,23.01 51.37,51.39 0,14.87 -6.32,28.27 -16.41,37.65 -22.82,-25.52 -47.47,-49.37 -73.74,-71.35 9.42,-10.84 23.3,-17.7 38.79,-17.7zm96.83 88.5c23.91,15.27 30.92,47.04 15.64,70.96 -3.52,5.51 -7.91,10.11 -12.87,13.76 -18.83,-28.74 -39.7,-56.01 -62.39,-81.64 16.7,-13.28 40.63,-15.21 59.62,-3.09zm-402.46 609.85l16.42 0 0 -88.65 -16.42 0 0 -35.65 84.9 0 0 35.65 -19.7 0 0 88.65 38.46 0 0 -25.33 43.15 0 0 25.33 0 25.33 0 15.48 -146.81 0 0 -40.81zm-197.24 -93.58c14.78,16.1 23.78,37.44 23.78,60.84 0,50.16 -41.36,90.83 -92.37,90.83 -30.28,0 -57.15,-14.32 -74,-36.46 16.9,18.42 41.38,30.01 68.6,30.01 51.02,0 92.37,-40.67 92.37,-90.83 0,-20.4 -6.84,-39.22 -18.38,-54.38zm32.15 93.58l16.42 0 0 -88.65 -16.42 0 0 -35.65 84.9 0 0 35.65 -19.7 0 0 88.65 38.46 0 0 -25.33 43.15 0 0 25.33 0 25.33 0 15.48 -146.82 0 0 -40.81zm-91.76 -44.96c1.54,12.43 14.33,9.84 13.39,-6.58 -16.16,-40.92 -70.3,-32.28 -73.25,14.42 -2.4,37.95 54.19,69.66 91.69,32.65 45.59,-44.98 -9.34,-129.1 -84.57,-111.04 68.97,-34.33 129.26,30.69 123.29,79.11 -15.91,128.95 -177.93,89.41 -170.33,0 6.06,-71.33 82.47,-83.59 111.89,-57.01 53.06,47.95 0.19,97.47 -22.09,93.36 -22.28,-4.11 -35.32,-17.62 -34.21,-37.06 1.74,-30.46 41.68,-33.83 44.19,-7.84zm-288.82 -83.2l0.7 37.94 18.64 0.22 -0.95 92.12 -17.91 0 -0.94 38.64 84.07 0.1 0.57 -38.74 -17.73 0 0 -16.03 16.97 0 20.79 27.33 0.05 27.54 65.86 -0.16 0.18 -38.49 -17.91 0c-5.34,-6.91 -10.86,-12.14 -16.2,-19.05 43.66,-25.44 40.41,-108.89 -23.56,-110.26l-112.63 -1.17zm70.22 41.69l-0.94 36.76c11.94,0 23.88,0 35.81,0 15.34,0.04 15.09,-36.18 -1.81,-36.48l-33.06 -0.27zm737.06 -15.57c-18.63,2.8 -38.29,9.48 -45.98,21.57 -5.18,8.15 -2.77,52.38 -2.78,65.62 -0.01,21.15 1.15,30.39 28.6,39.81 29.72,10.2 91.14,7.73 105.69,-17.39 4.86,-8.39 2.7,-51.51 2.7,-64.86 0.01,-19.29 0.27,-30.04 -27.74,-39.82 -18.21,-6.35 -40.17,-7.99 -60.49,-4.94zm-0.53 30.72c2.1,-9.87 26.03,-8.65 25.89,-2.59 -2.35,0.18 -7.78,3.47 -1.15,4.05 13.2,1.15 17.87,-7.51 3.11,-12.11 -27.16,-8.46 -66.88,11.19 -30.71,25.4 37.43,14.71 110.67,-5.73 69.46,-28.05 -6.1,-3.31 -17.62,-7.06 -25.39,-7.49 6.79,3.05 16.28,5.2 20.26,11.58 13.75,22.03 -60.7,30.84 -61.46,9.22zm54.66 18.96c-15.9,1.08 -19.27,4.72 -42.44,1.75 -11.42,-1.46 -29.72,-6.62 -32.96,-14.7 -9.64,-24.07 68.76,-26.59 61.42,-7.67 -2.32,4.61 -14.22,6.12 -19.37,4.91 -9.82,-2.31 3.62,-6.35 -6.41,-6.98 -17.8,-1.12 -13.16,17.17 19.71,13.97 38.01,-3.7 29.93,-31.25 -19.74,-32.03 -105.23,0.03 -32.25,65.42 39.78,40.75zm-996.7 -51.32c-18.63,2.8 -38.29,9.49 -45.98,21.57 -5.18,8.15 -2.77,52.38 -2.78,65.62 -0,21.15 1.15,30.39 28.6,39.81 29.72,10.2 91.14,7.73 105.69,-17.39 4.86,-8.39 2.69,-51.51 2.7,-64.85 0.01,-19.29 0.27,-30.04 -27.74,-39.82 -18.21,-6.35 -40.17,-7.99 -60.49,-4.94zm-0.53 30.72c2.1,-9.87 26.04,-8.66 25.89,-2.59 -2.35,0.18 -7.78,3.47 -1.15,4.05 13.2,1.15 17.87,-7.51 3.11,-12.11 -27.16,-8.46 -66.88,11.19 -30.71,25.4 37.43,14.71 110.67,-5.73 69.46,-28.06 -6.1,-3.31 -17.62,-7.06 -25.39,-7.49 6.79,3.05 16.28,5.2 20.26,11.58 13.75,22.03 -60.7,30.84 -61.46,9.22zm54.66 18.96c-15.9,1.08 -19.27,4.72 -42.44,1.76 -11.42,-1.46 -29.72,-6.62 -32.96,-14.7 -9.64,-24.07 68.76,-26.59 61.42,-7.67 -2.32,4.61 -14.22,6.12 -19.37,4.91 -9.82,-2.31 3.62,-6.35 -6.41,-6.98 -17.8,-1.12 -13.15,17.17 19.71,13.97 38.01,-3.7 29.93,-31.25 -19.74,-32.03 -105.23,0.03 -32.25,65.42 39.78,40.75zm962.77 211.96c20.09,1.55 18.55,18.71 -2.48,17.42l-519.46 -42.17 -519.45 42.17c-21.03,1.28 -22.57,-15.87 -2.48,-17.42l435.26 -31.78 -442.35 -35.91c-10.06,-1.14 -9.33,-9.98 1.27,-8.96l527.76 38.54 527.76 -38.54c10.59,-1.02 11.32,7.82 1.27,8.96l-442.35 35.91 435.26 31.78zm-806.51 73.46l17.66 -1.75 0.44 2.42c0.49,2.74 1.49,5.79 3.67,7.67 2.08,1.79 4.86,2.3 7.54,2.3 2.47,0 5.62,-0.34 7.6,-2 1.29,-1.08 2.18,-2.36 2.18,-4.08 0,-0.81 -0.19,-1.52 -0.71,-2.15 -0.71,-0.86 -2.41,-1.56 -3.43,-1.92 -3.1,-1.09 -6.79,-1.91 -9.98,-2.71 -5.09,-1.27 -11.59,-3.34 -15.56,-6.92 -4.37,-3.94 -6.71,-8.9 -6.71,-14.8 0,-3.81 1.09,-7.36 3.16,-10.56 2.22,-3.43 5.37,-5.85 9.1,-7.45 4.24,-1.82 8.94,-2.43 13.52,-2.43 6.89,0 14.37,1.26 19.7,5.96 4.78,4.21 7.01,9.72 7.23,16.05l0.09 2.66 -17.87 0.61 -0.38 -2.3c-0.32,-1.89 -0.98,-4.18 -2.55,-5.43 -1.64,-1.32 -4.38,-1.57 -6.4,-1.57 -2.36,0 -5.15,0.35 -7.1,1.79 -0.66,0.48 -0.95,1 -0.95,1.82 0,0.79 0.37,1.33 0.97,1.83 1.87,1.58 8.28,3.16 10.65,3.72 4.66,1.1 10.19,2.56 14.44,4.81 3.33,1.76 6.06,4.21 8.03,7.42 2.14,3.47 2.93,7.48 2.93,11.51 0,4.21 -1.19,8.12 -3.45,11.67 -2.38,3.73 -5.72,6.41 -9.8,8.11 -4.63,1.93 -9.88,2.53 -14.86,2.53 -7.17,0 -14.66,-1.4 -20.24,-6.21 -5.34,-4.59 -7.8,-11.03 -8.61,-17.89l-0.32 -2.7zm136.86 -43.24l18.2 0 0 37.1c0,2.8 -0.13,7.37 0.42,10.09 0.39,1.93 1.32,3.49 2.89,4.69 1.88,1.45 4.47,1.81 6.78,1.81 2.07,0 4.79,-0.27 6.47,-1.64 1.27,-1.03 2.08,-2.26 2.36,-3.87 0.55,-3.19 0.52,-7.11 0.52,-10.35l0 -37.84 18.2 0 0 36.08c0,5.13 0.01,11.75 -1.1,16.76 -0.75,3.38 -2.15,6.5 -4.4,9.14 -2.28,2.67 -5.22,4.58 -8.45,5.91 -4.07,1.68 -8.83,2.14 -13.21,2.14 -4.72,0 -10.49,-0.37 -14.85,-2.34 -3.23,-1.45 -6.15,-3.46 -8.39,-6.23 -1.95,-2.41 -3.4,-5.1 -4.1,-8.13 -1.2,-5.18 -1.33,-11.44 -1.33,-16.74l0 -36.6zm134.41 43.24l17.66 -1.75 0.44 2.42c0.49,2.74 1.49,5.79 3.67,7.67 2.09,1.79 4.86,2.3 7.54,2.3 2.47,0 5.62,-0.34 7.6,-2 1.29,-1.08 2.18,-2.36 2.18,-4.08 0,-0.81 -0.19,-1.52 -0.71,-2.15 -0.71,-0.86 -2.41,-1.56 -3.44,-1.92 -3.1,-1.09 -6.79,-1.91 -9.98,-2.71 -5.09,-1.27 -11.59,-3.34 -15.56,-6.92 -4.37,-3.94 -6.71,-8.9 -6.71,-14.8 0,-3.81 1.09,-7.36 3.16,-10.56 2.22,-3.43 5.37,-5.85 9.1,-7.45 4.24,-1.82 8.94,-2.43 13.52,-2.43 6.89,0 14.37,1.26 19.7,5.96 4.78,4.21 7.01,9.72 7.23,16.05l0.09 2.66 -17.87 0.61 -0.38 -2.3c-0.32,-1.89 -0.99,-4.18 -2.55,-5.43 -1.64,-1.32 -4.38,-1.57 -6.4,-1.57 -2.36,0 -5.15,0.35 -7.1,1.79 -0.66,0.48 -0.94,1 -0.94,1.82 0,0.79 0.37,1.33 0.96,1.83 1.87,1.58 8.28,3.16 10.65,3.72 4.66,1.1 10.19,2.56 14.44,4.81 3.33,1.76 6.06,4.21 8.04,7.42 2.14,3.47 2.92,7.48 2.92,11.51 0,4.21 -1.19,8.12 -3.45,11.67 -2.38,3.73 -5.72,6.41 -9.8,8.11 -4.63,1.93 -9.88,2.53 -14.86,2.53 -7.17,0 -14.66,-1.4 -20.24,-6.21 -5.34,-4.59 -7.8,-11.03 -8.62,-17.89l-0.32 -2.7zm155.05 -18.21l19.71 0 0 -25.03 18.19 0 0 68.88 -18.19 0 0 -27.78 -19.71 0 0 27.78 -18.19 0 0 -68.88 18.19 0 0 25.03zm119.44 43.85l0 -68.88 18.2 0 0 68.88 -18.2 0zm-104.95 86.79l112.34 0c2.86,0 5.2,2.34 5.2,5.2 0,2.86 -2.34,5.2 -5.2,5.2l-112.34 0c-2.86,0 -5.2,-2.34 -5.2,-5.2 0,-2.86 2.34,-5.2 5.2,-5.2zm-424.34 0l112.34 0c2.86,0 5.2,2.34 5.2,5.2 0,2.86 -2.34,5.2 -5.2,5.2l-112.34 0c-2.86,0 -5.2,-2.34 -5.2,-5.2 0,-2.86 2.34,-5.2 5.2,-5.2zm349.31 -7.18l-1.86 0c-1.62,0 -2.67,0.16 -3.13,0.49 -0.46,0.33 -0.69,1.03 -0.69,2.11l0 2.53c0,1.08 0.22,1.77 0.64,2.09 0.44,0.32 1.49,0.48 3.18,0.48l1.86 0c1.65,0 2.7,-0.16 3.16,-0.5 0.44,-0.33 0.67,-1.03 0.67,-2.07l0 -2.53c0,-1.05 -0.23,-1.74 -0.69,-2.08 -0.47,-0.34 -1.51,-0.51 -3.13,-0.51zm-13.38 18.23l8.49 0 0 0.44c0,0.97 0.2,1.62 0.61,1.96 0.4,0.33 1.21,0.5 2.43,0.5l2.23 0c1.47,0 2.42,-0.18 2.83,-0.54 0.42,-0.36 0.63,-1.16 0.63,-2.4l0 -5.94c-0.7,0.72 -1.51,1.27 -2.42,1.62 -0.92,0.36 -1.96,0.54 -3.13,0.54l-3.3 0c-3.12,0 -5.43,-0.75 -6.91,-2.24 -1.48,-1.5 -2.23,-3.82 -2.23,-6.96l0 -3.08c0,-2.98 0.94,-5.22 2.82,-6.72 1.88,-1.48 4.7,-2.23 8.46,-2.23l4 0c4.17,0 7.1,1.01 8.78,3.04 1.68,2.03 2.52,5.63 2.52,10.8l0 7.03c0,5.17 -0.84,8.78 -2.51,10.81 -1.67,2.04 -4.6,3.05 -8.78,3.05l-4 0c-3.46,0 -6.07,-0.64 -7.84,-1.91 -1.76,-1.27 -2.65,-3.16 -2.65,-5.67l0 -2.12zm-48.89 -14.6l11.62 -10.03 10.02 0 0 33.91 -8.53 0 0 -25.22 -7.98 7.08 -5.13 -5.74zm-41.71 3.68l0 6.48c0,2.87 0.3,4.68 0.89,5.44 0.59,0.75 1.8,1.13 3.6,1.13l1.45 0c1.79,0 2.98,-0.36 3.55,-1.08 0.58,-0.72 0.86,-2.55 0.86,-5.49l0 -6.48c0,-2.95 -0.29,-4.77 -0.86,-5.5 -0.57,-0.72 -1.76,-1.08 -3.55,-1.08l-1.45 0c-1.8,0 -3.01,0.38 -3.6,1.13 -0.59,0.76 -0.89,2.57 -0.89,5.44zm-8.72 -0.27c0,-5.17 0.89,-8.77 2.65,-10.8 1.77,-2.04 4.86,-3.06 9.26,-3.06l4.05 0c4.38,0 7.46,1.02 9.23,3.06 1.76,2.05 2.65,5.64 2.65,10.8l0 7.03c0,5.15 -0.89,8.75 -2.65,10.8 -1.77,2.04 -4.85,3.06 -9.23,3.06l-4.05 0c-4.4,0 -7.48,-1.01 -9.26,-3.04 -1.76,-2.03 -2.65,-5.63 -2.65,-10.82l0 -7.03zm-48.28 20.47l0 -8.05c0,-2.43 0.46,-4.38 1.37,-5.86 0.91,-1.47 2.29,-2.47 4.14,-3l9.87 -2.98c1.05,-0.32 1.75,-0.68 2.1,-1.08 0.35,-0.4 0.52,-1.01 0.52,-1.81l0 -1.37c0,-1.25 -0.29,-2.12 -0.86,-2.6 -0.57,-0.47 -1.59,-0.72 -3.05,-0.72l-1.5 0c-1.45,0 -2.45,0.25 -3.01,0.74 -0.57,0.5 -0.86,1.35 -0.86,2.57l0 1.91 -8.39 0 0 -3.03c0,-2.92 0.91,-5.15 2.73,-6.72 1.82,-1.55 4.44,-2.33 7.85,-2.33l4.94 0c3.35,0 5.99,0.79 7.91,2.36 1.92,1.58 2.88,3.73 2.88,6.46l0 2.81c0,2.49 -0.51,4.5 -1.55,6.02 -1.03,1.52 -2.59,2.56 -4.66,3.12l-9.61 2.58c-0.75,0.21 -1.27,0.47 -1.55,0.76 -0.27,0.29 -0.4,0.75 -0.4,1.37l0 1.35 17.53 0 0 7.51 -26.4 0zm697.93 -159.69c15.55,8.83 26.04,25.55 26.04,44.72 0,28.38 -23,51.39 -51.37,51.39 -11.55,0 -22.21,-3.82 -30.79,-10.25 20.69,-27.14 39.46,-55.83 56.12,-85.86zm-60.43 91.49c11.91,9.41 19.56,23.99 19.56,40.35 0,28.38 -23,51.39 -51.37,51.39 -14.45,0 -27.5,-5.97 -36.83,-15.57 24.67,-23.68 47.61,-49.14 68.65,-76.17zm-72.08 79.43c8.86,9.23 14.3,21.77 14.3,35.57 0,28.38 -23,51.39 -51.37,51.39 -17.47,0 -32.91,-8.73 -42.18,-22.07 27.98,-19.72 54.47,-41.42 79.26,-64.9zm-82.3 67.01c10.41,16.34 11.1,37.9 -0.02,55.31 -15.27,23.92 -47.04,30.94 -70.95,15.68 -7.51,-4.8 -13.36,-11.22 -17.37,-18.53 30.79,-15.37 60.3,-32.92 88.33,-52.46zm-92.9 54.72c6.92,15.29 6.22,33.67 -3.49,48.88 -15.27,23.92 -47.04,30.94 -70.95,15.68 -10.07,-6.43 -17.14,-15.78 -20.81,-26.24 32.86,-10.5 64.68,-23.33 95.26,-38.32zm-100.3 39.95c3.91,13.67 2.17,28.89 -6.09,41.82 -15.27,23.92 -47.04,30.94 -70.95,15.68 -12.59,-8.04 -20.49,-20.66 -22.92,-34.29 34.19,-5.35 67.58,-13.12 99.96,-23.2zm-109.53 24.6c0.85,10.76 -1.67,21.87 -7.92,31.67 -15.27,23.92 -47.04,30.94 -70.95,15.68 -14.41,-9.2 -22.67,-24.38 -23.63,-40.23 0.73,0 1.45,0.03 2.18,0.03 34.06,0 67.55,-2.46 100.32,-7.13zm-109.17 7.02c-0.36,8.76 -2.98,17.55 -8.04,25.47 -15.27,23.92 -47.04,30.94 -70.95,15.68 -17.29,-11.03 -25.73,-30.69 -23.32,-49.78 33.38,5.28 67.54,8.2 102.31,8.63zm-108.53 -9.66c-1.21,6.09 -3.56,12.07 -7.1,17.62 -15.27,23.92 -47.04,30.94 -70.95,15.68 -19.67,-12.56 -27.89,-36.28 -21.7,-57.61 32.3,10.43 65.61,18.6 99.75,24.32zm-102.63 -25.25c-1.24,3.29 -2.84,6.51 -4.81,9.6 -15.27,23.92 -47.04,30.94 -70.95,15.68 -21.76,-13.89 -29.52,-41.46 -19.22,-64.33 30.47,15.22 62.2,28.31 94.98,39.06zm-98.72 -40.92c-0.56,1.03 -1.16,2.04 -1.79,3.04 -15.27,23.92 -47.04,30.94 -70.95,15.68 -23.91,-15.27 -30.92,-47.04 -15.64,-70.96 0.15,-0.24 0.31,-0.48 0.47,-0.71 27.89,19.69 57.26,37.41 87.92,52.96zm-89.8 -54.26c-15.82,21.94 -46.21,27.96 -69.29,13.23 -23.91,-15.26 -30.92,-47.03 -15.64,-70.96 1.76,-2.75 3.73,-5.27 5.89,-7.57 24.71,23.61 51.12,45.45 79.05,65.3zm-83.61 -69.76c-16.7,16.39 -43.05,19.72 -63.6,6.61 -23.91,-15.27 -30.92,-47.03 -15.64,-70.96 3.07,-4.82 6.82,-8.95 11.03,-12.35 20.88,27.2 43.68,52.83 68.22,76.7zm-71.43 -80.9c-16.67,12.89 -40.3,14.65 -59.08,2.66 -23.91,-15.27 -30.92,-47.04 -15.65,-70.96 4.91,-7.7 11.53,-13.64 19.05,-17.66 16.51,30.05 35.13,58.77 55.68,85.95zm-58.11 -90.38c-15.89,8.62 -35.86,8.58 -52.17,-1.83 -23.91,-15.27 -30.92,-47.04 -15.64,-70.96 6.34,-9.94 15.53,-16.95 25.81,-20.67 11.78,32.32 25.84,63.54 42,93.46zm-44.42 -100.35c-14.68,5.59 -31.72,4.41 -45.97,-4.69 -23.91,-15.27 -30.92,-47.04 -15.64,-70.96 8.13,-12.73 20.92,-20.67 34.72,-23.02 6.63,33.81 15.64,66.76 26.89,98.66zm-28.09 -104.95c-12.17,2.1 -25.12,-0.16 -36.34,-7.32 -23.91,-15.27 -30.92,-47.04 -15.65,-70.96 9.27,-14.52 24.61,-22.81 40.58,-23.67 1.38,34.68 5.21,68.74 11.41,101.96zm-11.67 -108.8c-10.61,0.75 -21.54,-1.78 -31.19,-7.95 -23.91,-15.27 -30.92,-47.04 -15.64,-70.96 11.29,-17.68 31.59,-26.13 51.07,-23.17 -3,26.44 -4.59,53.3 -4.59,80.54 0,7.21 0.13,14.38 0.36,21.53zm1398.13 118.89c23.09,5.04 40.38,25.6 40.38,50.21 0,28.38 -23,51.39 -51.37,51.39 -5.8,0 -11.38,-0.97 -16.58,-2.74 11.48,-31.95 20.75,-64.97 27.57,-98.86zm33.77 -99.62c23.91,15.27 30.92,47.04 15.64,70.96 -10.78,16.89 -29.78,25.35 -48.43,23.5 6.44,-33.25 10.55,-67.32 12.17,-102.05 7.12,0.98 14.16,3.47 20.61,7.59zm31.73 -60.69c-0.73,7.89 -3.3,15.72 -7.86,22.86 -9.97,15.62 -26.98,24.03 -44.24,23.74 0.34,-8.86 0.55,-17.76 0.55,-26.7 0,-13.09 -0.36,-26.09 -1.07,-39 11.35,10.95 27.64,18.91 43.36,19.73 3.02,0.16 6.11,-0.07 9.26,-0.62z"/>
 </g>
</svg>
